<?xml version="1.0" encoding="utf-8" ?>
<svg width="250" height="300" xmlns="http://www.w3.org/2000/svg" xmlns:xlink="http://www.w3.org/1999/xlink" xmlns:ev="http://www.w3.org/2001/xml-events" baseProfile="full" version="1.1"><defs /><rect fill="white" x="0" y="0" width="250" height="300" /><line stroke="darkgray" stroke-width="2" x1="30" y1="110.0" x2="212.5" y2="110.0" /><line stroke="darkgray" stroke-width="2" x1="30" y1="165.0" x2="212.5" y2="165.0" /><line stroke="darkgray" stroke-width="2" x1="30" y1="220.0" x2="212.5" y2="220.0" /><line stroke="darkgray" stroke-width="2" x1="30" y1="275.0" x2="212.5" y2="275.0" /><circle fill="black" cx="22" cy="192.5" r="2" /><line stroke="darkslategray" stroke-width="3.0" x1="31.5" y1="45.0" x2="31.5" y2="285.0" /><text font-family="Lato" font-size="15" font-weight="bold" fill="silver" text-anchor="middle" alignment-baseline="middle" x="31.5" y="30.0">X</text><line stroke="darkslategray" stroke-width="2.5" x1="90.83333333333334" y1="45.0" x2="90.83333333333334" y2="285.0" /><line stroke="darkslategray" stroke-width="2.0" x1="151.66666666666669" y1="45.0" x2="151.66666666666669" y2="285.0" /><line stroke="darkslategray" stroke-width="1.5" x1="211.75" y1="45.0" x2="211.75" y2="285.0" /><line stroke="darkslategray" stroke-width="10" x1="30" y1="50.0" x2="212.5" y2="50.0" /><circle fill="steelblue" stroke="darkslategray" stroke-width="2" cx="90.83333333333334" cy="137.5" r="12" /><text font-family="Lato" font-size="15" font-weight="bold" fill="white" text-anchor="middle" alignment-baseline="central" x="90.83333333333334" y="137.5">3</text><circle fill="steelblue" stroke="darkslategray" stroke-width="2" cx="151.66666666666669" cy="137.5" r="12" /><text font-family="Lato" font-size="15" font-weight="bold" fill="white" text-anchor="middle" alignment-baseline="central" x="151.66666666666669" y="137.5">2</text><circle fill="steelblue" stroke="darkslategray" stroke-width="2" cx="212.5" cy="82.5" r="12" /><text font-family="Lato" font-size="15" font-weight="bold" fill="white" text-anchor="middle" alignment-baseline="central" x="212.5" y="82.5">1</text></svg>