<?xml version="1.0" encoding="utf-8" ?>
<svg width="250" height="300" xmlns="http://www.w3.org/2000/svg" xmlns:xlink="http://www.w3.org/1999/xlink" xmlns:ev="http://www.w3.org/2001/xml-events" baseProfile="full" version="1.1"><defs /><rect fill="white" x="0" y="0" width="250" height="300" /><line stroke="darkgray" stroke-width="2" x1="30" y1="55.0" x2="212.5" y2="55.0" /><line stroke="darkgray" stroke-width="2" x1="30" y1="99.0" x2="212.5" y2="99.0" /><line stroke="darkgray" stroke-width="2" x1="30" y1="143.0" x2="212.5" y2="143.0" /><line stroke="darkgray" stroke-width="2" x1="30" y1="187.0" x2="212.5" y2="187.0" /><line stroke="darkgray" stroke-width="2" x1="30" y1="231.0" x2="212.5" y2="231.0" /><line stroke="darkgray" stroke-width="2" x1="30" y1="275.0" x2="212.5" y2="275.0" /><circle fill="black" cx="22" cy="117.0" r="2" /><circle fill="black" cx="22" cy="125.0" r="2" /><circle fill="black" cx="22" cy="253.0" r="2" /><text font-family="Lato" font-size="15" font-style="italic" font-weight="bold" fill="dimgray" text-anchor="start" x="214.5" y="58.0">10fr</text><line stroke="darkslategray" stroke-width="3.0" x1="31.5" y1="45.0" x2="31.5" y2="285.0" /><text font-family="Lato" font-size="15" font-weight="bold" fill="silver" text-anchor="middle" alignment-baseline="middle" x="31.5" y="30.0">X</text><line stroke="darkslategray" stroke-width="2.6666666666666665" x1="66.5" y1="45.0" x2="66.5" y2="285.0" /><line stroke="darkslategray" stroke-width="2.3333333333333335" x1="103.0" y1="45.0" x2="103.0" y2="285.0" /><line stroke="darkslategray" stroke-width="2.0" x1="139.5" y1="45.0" x2="139.5" y2="285.0" /><line stroke="darkslategray" stroke-width="1.6666666666666667" x1="176.0" y1="45.0" x2="176.0" y2="285.0" /><line stroke="darkslategray" stroke-width="1.3333333333333335" x1="211.83333333333334" y1="45.0" x2="211.83333333333334" y2="285.0" /><line stroke="darkslategray" stroke-linecap="round" stroke-width="28" x1="139.5" y1="77.0" x2="212.5" y2="77.0" /><line stroke="steelblue" stroke-linecap="round" stroke-width="24" x1="139.5" y1="77.0" x2="212.5" y2="77.0" /><text font-family="Lato" font-size="15" font-weight="bold" fill="white" text-anchor="middle" alignment-baseline="central" x="139.5" y="77.0">1</text><circle fill="steelblue" stroke="darkslategray" stroke-width="2" cx="66.5" cy="253.0" r="12" /><text font-family="Lato" font-size="15" font-weight="bold" fill="white" text-anchor="middle" alignment-baseline="central" x="66.5" y="253.0">4</text><circle fill="steelblue" stroke="darkslategray" stroke-width="2" cx="103.0" cy="209.0" r="12" /><text font-family="Lato" font-size="15" font-weight="bold" fill="white" text-anchor="middle" alignment-baseline="central" x="103.0" y="209.0">3</text><circle fill="steelblue" stroke="darkslategray" stroke-width="2" cx="176.0" cy="121.0" r="12" /><text font-family="Lato" font-size="15" font-weight="bold" fill="white" text-anchor="middle" alignment-baseline="central" x="176.0" y="121.0">2</text></svg>