<?xml version="1.0" encoding="utf-8" ?>
<svg baseProfile="full" height="300" version="1.1" width="250" xmlns="http://www.w3.org/2000/svg" xmlns:ev="http://www.w3.org/2001/xml-events" xmlns:xlink="http://www.w3.org/1999/xlink"><defs /><rect fill="white" height="300" width="250" x="0" y="0" /><line stroke="darkgray" stroke-width="2" x1="30" x2="212.5" y1="110.0" y2="110.0" /><line stroke="darkgray" stroke-width="2" x1="30" x2="212.5" y1="165.0" y2="165.0" /><line stroke="darkgray" stroke-width="2" x1="30" x2="212.5" y1="220.0" y2="220.0" /><line stroke="darkgray" stroke-width="2" x1="30" x2="212.5" y1="275.0" y2="275.0" /><circle cx="22" cy="192.5" fill="black" r="2" /><line stroke="darkslategray" stroke-width="3.0" x1="31.5" x2="31.5" y1="45.0" y2="285.0" /><text alignment-baseline="middle" fill="silver" font-family="Lato" font-size="15" font-weight="bold" text-anchor="middle" x="31.5" y="30.0">X</text><line stroke="darkslategray" stroke-width="2.6666666666666665" x1="66.5" x2="66.5" y1="45.0" y2="285.0" /><text alignment-baseline="middle" fill="silver" font-family="Lato" font-size="15" font-weight="bold" text-anchor="middle" x="66.5" y="30.0">X</text><line stroke="darkslategray" stroke-width="2.3333333333333335" x1="103.0" x2="103.0" y1="45.0" y2="285.0" /><text alignment-baseline="middle" fill="steelblue" font-family="Lato" font-size="15" font-weight="bold" text-anchor="middle" x="103.0" y="30.0">O</text><line stroke="darkslategray" stroke-width="2.0" x1="139.5" x2="139.5" y1="45.0" y2="285.0" /><line stroke="darkslategray" stroke-width="1.6666666666666667" x1="176.0" x2="176.0" y1="45.0" y2="285.0" /><line stroke="darkslategray" stroke-width="1.3333333333333335" x1="211.83333333333334" x2="211.83333333333334" y1="45.0" y2="285.0" /><line stroke="darkslategray" stroke-width="10" x1="30" x2="212.5" y1="50.0" y2="50.0" /><circle cx="139.5" cy="137.5" fill="steelblue" r="12" stroke="darkslategray" stroke-width="2" /><text alignment-baseline="central" fill="white" font-family="Lato" font-size="15" font-weight="bold" text-anchor="middle" x="139.5" y="137.5">1</text><circle cx="176.0" cy="192.5" fill="steelblue" r="12" stroke="darkslategray" stroke-width="2" /><text alignment-baseline="central" fill="white" font-family="Lato" font-size="15" font-weight="bold" text-anchor="middle" x="176.0" y="192.5">3</text><circle cx="212.5" cy="137.5" fill="steelblue" r="12" stroke="darkslategray" stroke-width="2" /><text alignment-baseline="central" fill="white" font-family="Lato" font-size="15" font-weight="bold" text-anchor="middle" x="212.5" y="137.5">2</text></svg>