<?xml version="1.0" encoding="utf-8" ?>
<svg baseProfile="full" height="300" version="1.1" width="250" xmlns="http://www.w3.org/2000/svg" xmlns:ev="http://www.w3.org/2001/xml-events" xmlns:xlink="http://www.w3.org/1999/xlink"><defs /><rect fill="black" height="300" width="250" x="0" y="0" /><line stroke="darkslategray" stroke-width="2" x1="30" x2="212.5" y1="99.0" y2="99.0" /><line stroke="darkslategray" stroke-width="2" x1="30" x2="212.5" y1="143.0" y2="143.0" /><line stroke="darkslategray" stroke-width="2" x1="30" x2="212.5" y1="187.0" y2="187.0" /><line stroke="darkslategray" stroke-width="2" x1="30" x2="212.5" y1="231.0" y2="231.0" /><line stroke="darkslategray" stroke-width="2" x1="30" x2="212.5" y1="275.0" y2="275.0" /><circle cx="22" cy="165.0" fill="black" r="2" /><circle cx="22" cy="253.0" fill="black" r="2" /><line stroke="red" stroke-width="3.0" x1="31.5" x2="31.5" y1="45.0" y2="285.0" /><line stroke="gold" stroke-width="2.6666666666666665" x1="66.5" x2="66.5" y1="45.0" y2="285.0" /><line stroke="deepskyblue" stroke-width="2.3333333333333335" x1="103.0" x2="103.0" y1="45.0" y2="285.0" /><line stroke="orange" stroke-width="2.0" x1="139.5" x2="139.5" y1="45.0" y2="285.0" /><line stroke="limegreen" stroke-width="1.6666666666666667" x1="176.0" x2="176.0" y1="45.0" y2="285.0" /><line stroke="magenta" stroke-width="1.3333333333333335" x1="211.83333333333334" x2="211.83333333333334" y1="45.0" y2="285.0" /><line stroke="darkslategray" stroke-width="10" x1="30" x2="212.5" y1="50.0" y2="50.0" /><line stroke="slategray" stroke-linecap="round" stroke-width="28" x1="30.0" x2="212.5" y1="77.0" y2="77.0" /><line stroke="darkslategray" stroke-linecap="round" stroke-width="24" x1="30.0" x2="212.5" y1="77.0" y2="77.0" /><text alignment-baseline="central" fill="white" font-family="Lato" font-size="15" font-weight="bold" text-anchor="middle" x="30.0" y="77.0">1</text><circle cx="66.5" cy="165.0" fill="darkslategray" r="12" stroke="slategray" stroke-width="2" /><text alignment-baseline="central" fill="white" font-family="Lato" font-size="15" font-weight="bold" text-anchor="middle" x="66.5" y="165.0">3</text><circle cx="103.0" cy="165.0" fill="darkslategray" r="12" stroke="slategray" stroke-width="2" /><text alignment-baseline="central" fill="white" font-family="Lato" font-size="15" font-weight="bold" text-anchor="middle" x="103.0" y="165.0">4</text><circle cx="139.5" cy="121.0" fill="darkslategray" r="12" stroke="slategray" stroke-width="2" /><text alignment-baseline="central" fill="white" font-family="Lato" font-size="15" font-weight="bold" text-anchor="middle" x="139.5" y="121.0">2</text></svg>