<?xml version="1.0" encoding="utf-8" ?>
<svg width="250" height="300" xmlns="http://www.w3.org/2000/svg" xmlns:xlink="http://www.w3.org/1999/xlink" xmlns:ev="http://www.w3.org/2001/xml-events" baseProfile="full" version="1.1"><defs /><rect fill="black" x="0" y="0" width="250" height="300" /><line stroke="darkslategray" stroke-width="2" x1="30" y1="99.0" x2="212.5" y2="99.0" /><line stroke="darkslategray" stroke-width="2" x1="30" y1="143.0" x2="212.5" y2="143.0" /><line stroke="darkslategray" stroke-width="2" x1="30" y1="187.0" x2="212.5" y2="187.0" /><line stroke="darkslategray" stroke-width="2" x1="30" y1="231.0" x2="212.5" y2="231.0" /><line stroke="darkslategray" stroke-width="2" x1="30" y1="275.0" x2="212.5" y2="275.0" /><circle fill="black" cx="22" cy="165.0" r="2" /><circle fill="black" cx="22" cy="253.0" r="2" /><line stroke="red" stroke-width="3.0" x1="31.5" y1="45.0" x2="31.5" y2="285.0" /><line stroke="gold" stroke-width="2.6666666666666665" x1="66.5" y1="45.0" x2="66.5" y2="285.0" /><line stroke="deepskyblue" stroke-width="2.3333333333333335" x1="103.0" y1="45.0" x2="103.0" y2="285.0" /><line stroke="orange" stroke-width="2.0" x1="139.5" y1="45.0" x2="139.5" y2="285.0" /><line stroke="limegreen" stroke-width="1.6666666666666667" x1="176.0" y1="45.0" x2="176.0" y2="285.0" /><line stroke="magenta" stroke-width="1.3333333333333335" x1="211.83333333333334" y1="45.0" x2="211.83333333333334" y2="285.0" /><line stroke="darkslategray" stroke-width="10" x1="30" y1="50.0" x2="212.5" y2="50.0" /><line stroke="slategray" stroke-linecap="round" stroke-width="28" x1="30.0" y1="77.0" x2="212.5" y2="77.0" /><line stroke="darkslategray" stroke-linecap="round" stroke-width="24" x1="30.0" y1="77.0" x2="212.5" y2="77.0" /><text font-family="Lato" font-size="15" font-weight="bold" fill="white" text-anchor="middle" alignment-baseline="central" x="30.0" y="77.0">1</text><circle fill="darkslategray" stroke="slategray" stroke-width="2" cx="66.5" cy="165.0" r="12" /><text font-family="Lato" font-size="15" font-weight="bold" fill="white" text-anchor="middle" alignment-baseline="central" x="66.5" y="165.0">3</text><circle fill="darkslategray" stroke="slategray" stroke-width="2" cx="103.0" cy="165.0" r="12" /><text font-family="Lato" font-size="15" font-weight="bold" fill="white" text-anchor="middle" alignment-baseline="central" x="103.0" y="165.0">4</text><circle fill="darkslategray" stroke="slategray" stroke-width="2" cx="139.5" cy="121.0" r="12" /><text font-family="Lato" font-size="15" font-weight="bold" fill="white" text-anchor="middle" alignment-baseline="central" x="139.5" y="121.0">2</text></svg>