<?xml version="1.0" encoding="utf-8" ?>
<svg width="400" height="250" xmlns="http://www.w3.org/2000/svg" xmlns:xlink="http://www.w3.org/1999/xlink" xmlns:ev="http://www.w3.org/2001/xml-events" baseProfile="full" version="1.1"><defs /><rect fill="white" x="0" y="0" width="400" height="250" /><line stroke="darkgray" stroke-width="2" x1="135.0" y1="30" x2="135.0" y2="212.5" /><line stroke="darkgray" stroke-width="2" x1="215.0" y1="30" x2="215.0" y2="212.5" /><line stroke="darkgray" stroke-width="2" x1="295.0" y1="30" x2="295.0" y2="212.5" /><line stroke="darkgray" stroke-width="2" x1="375.0" y1="30" x2="375.0" y2="212.5" /><circle fill="black" cx="255.0" cy="220.5" r="2" /><line stroke="darkslategray" stroke-width="3.0" x1="45.0" y1="211.0" x2="385.0" y2="211.0" /><line stroke="darkslategray" stroke-width="2.6666666666666665" x1="45.0" y1="176.0" x2="385.0" y2="176.0" /><line stroke="darkslategray" stroke-width="2.3333333333333335" x1="45.0" y1="139.5" x2="385.0" y2="139.5" /><text font-family="Lato" font-size="15" font-weight="bold" fill="steelblue" text-anchor="middle" alignment-baseline="middle" x="30.0" y="139.5">O</text><line stroke="darkslategray" stroke-width="2.0" x1="45.0" y1="103.0" x2="385.0" y2="103.0" /><text font-family="Lato" font-size="15" font-weight="bold" fill="steelblue" text-anchor="middle" alignment-baseline="middle" x="30.0" y="103.0">O</text><line stroke="darkslategray" stroke-width="1.6666666666666667" x1="45.0" y1="66.5" x2="385.0" y2="66.5" /><line stroke="darkslategray" stroke-width="1.3333333333333335" x1="45.0" y1="30.666666666666668" x2="385.0" y2="30.666666666666668" /><line stroke="darkslategray" stroke-width="10" x1="50.0" y1="30" x2="50.0" y2="212.5" /><circle fill="steelblue" stroke="darkslategray" stroke-width="2" cx="255.0" cy="212.5" r="12" /><text font-family="Lato" font-size="15" font-weight="bold" fill="white" text-anchor="middle" alignment-baseline="central" x="255.0" y="212.5">2</text><circle fill="steelblue" stroke="darkslategray" stroke-width="2" cx="175.0" cy="176.0" r="12" /><text font-family="Lato" font-size="15" font-weight="bold" fill="white" text-anchor="middle" alignment-baseline="central" x="175.0" y="176.0">1</text><circle fill="steelblue" stroke="darkslategray" stroke-width="2" cx="255.0" cy="66.5" r="12" /><text font-family="Lato" font-size="15" font-weight="bold" fill="white" text-anchor="middle" alignment-baseline="central" x="255.0" y="66.5">3</text><circle fill="steelblue" stroke="darkslategray" stroke-width="2" cx="255.0" cy="30.0" r="12" /><text font-family="Lato" font-size="15" font-weight="bold" fill="white" text-anchor="middle" alignment-baseline="central" x="255.0" y="30.0">4</text></svg>