<?xml version="1.0" encoding="utf-8" ?>
<svg width="1200" height="300" xmlns="http://www.w3.org/2000/svg" xmlns:xlink="http://www.w3.org/1999/xlink" xmlns:ev="http://www.w3.org/2001/xml-events" baseProfile="full" version="1.1"><defs /><rect fill="white" x="0" y="0" width="1200" height="300" /><line stroke="darkgray" stroke-width="2" x1="148.33333333333331" y1="30" x2="148.33333333333331" y2="262.5" /><line stroke="darkgray" stroke-width="2" x1="241.66666666666666" y1="30" x2="241.66666666666666" y2="262.5" /><line stroke="darkgray" stroke-width="2" x1="335.0" y1="30" x2="335.0" y2="262.5" /><line stroke="darkgray" stroke-width="2" x1="428.3333333333333" y1="30" x2="428.3333333333333" y2="262.5" /><line stroke="darkgray" stroke-width="2" x1="521.6666666666666" y1="30" x2="521.6666666666666" y2="262.5" /><line stroke="darkgray" stroke-width="2" x1="615.0" y1="30" x2="615.0" y2="262.5" /><line stroke="darkgray" stroke-width="2" x1="708.3333333333333" y1="30" x2="708.3333333333333" y2="262.5" /><line stroke="darkgray" stroke-width="2" x1="801.6666666666666" y1="30" x2="801.6666666666666" y2="262.5" /><line stroke="darkgray" stroke-width="2" x1="895.0" y1="30" x2="895.0" y2="262.5" /><line stroke="darkgray" stroke-width="2" x1="988.3333333333333" y1="30" x2="988.3333333333333" y2="262.5" /><line stroke="darkgray" stroke-width="2" x1="1081.6666666666665" y1="30" x2="1081.6666666666665" y2="262.5" /><line stroke="darkgray" stroke-width="2" x1="1175.0" y1="30" x2="1175.0" y2="262.5" /><circle fill="black" cx="288.33333333333337" cy="270.5" r="2" /><circle fill="black" cx="474.99999999999994" cy="270.5" r="2" /><circle fill="black" cx="661.6666666666666" cy="270.5" r="2" /><circle fill="black" cx="848.3333333333334" cy="270.5" r="2" /><circle fill="black" cx="1124.3333333333333" cy="270.5" r="2" /><circle fill="black" cx="1132.3333333333333" cy="270.5" r="2" /><line stroke="darkslategray" stroke-width="3.0" x1="45.0" y1="261.0" x2="1185.0" y2="261.0" /><line stroke="darkslategray" stroke-width="2.6666666666666665" x1="45.0" y1="216.0" x2="1185.0" y2="216.0" /><line stroke="darkslategray" stroke-width="2.3333333333333335" x1="45.0" y1="169.5" x2="1185.0" y2="169.5" /><line stroke="darkslategray" stroke-width="2.0" x1="45.0" y1="123.0" x2="1185.0" y2="123.0" /><line stroke="darkslategray" stroke-width="1.6666666666666667" x1="45.0" y1="76.5" x2="1185.0" y2="76.5" /><line stroke="darkslategray" stroke-width="1.3333333333333335" x1="45.0" y1="30.666666666666668" x2="1185.0" y2="30.666666666666668" /><line stroke="darkslategray" stroke-width="10" x1="50.0" y1="30" x2="50.0" y2="262.5" /><circle fill="salmon" stroke="darkslategray" stroke-width="2" cx="474.99999999999994" cy="262.5" r="12" /><text font-family="Lato" font-size="15" font-weight="bold" fill="white" text-anchor="middle" alignment-baseline="central" x="474.99999999999994" y="262.5">A</text><circle fill="cornflowerblue" stroke="darkslategray" stroke-width="2" cx="474.99999999999994" cy="216.0" r="12" /><text font-family="Lato" font-size="15" font-weight="bold" fill="white" text-anchor="middle" alignment-baseline="central" x="474.99999999999994" y="216.0">D</text><circle fill="cornflowerblue" stroke="darkslategray" stroke-width="2" cx="474.99999999999994" cy="169.5" r="12" /><text font-family="Lato" font-size="15" font-weight="bold" fill="white" text-anchor="middle" alignment-baseline="central" x="474.99999999999994" y="169.5">G</text><circle fill="cornflowerblue" stroke="darkslategray" stroke-width="2" cx="474.99999999999994" cy="123.0" r="12" /><text font-family="Lato" font-size="15" font-weight="bold" fill="white" text-anchor="middle" alignment-baseline="central" x="474.99999999999994" y="123.0">C</text><circle fill="cornflowerblue" stroke="darkslategray" stroke-width="2" cx="474.99999999999994" cy="76.5" r="12" /><text font-family="Lato" font-size="15" font-weight="bold" fill="white" text-anchor="middle" alignment-baseline="central" x="474.99999999999994" y="76.5">E</text><circle fill="salmon" stroke="darkslategray" stroke-width="2" cx="474.99999999999994" cy="30.0" r="12" /><text font-family="Lato" font-size="15" font-weight="bold" fill="white" text-anchor="middle" alignment-baseline="central" x="474.99999999999994" y="30.0">A</text><circle fill="cornflowerblue" stroke="darkslategray" stroke-width="2" cx="755.0" cy="262.5" r="12" /><text font-family="Lato" font-size="15" font-weight="bold" fill="white" text-anchor="middle" alignment-baseline="central" x="755.0" y="262.5">C</text><circle fill="cornflowerblue" stroke="darkslategray" stroke-width="2" cx="661.6666666666666" cy="216.0" r="12" /><text font-family="Lato" font-size="15" font-weight="bold" fill="white" text-anchor="middle" alignment-baseline="central" x="661.6666666666666" y="216.0">E</text><circle fill="salmon" stroke="darkslategray" stroke-width="2" cx="661.6666666666666" cy="169.5" r="12" /><text font-family="Lato" font-size="15" font-weight="bold" fill="white" text-anchor="middle" alignment-baseline="central" x="661.6666666666666" y="169.5">A</text><circle fill="cornflowerblue" stroke="darkslategray" stroke-width="2" cx="661.6666666666666" cy="123.0" r="12" /><text font-family="Lato" font-size="15" font-weight="bold" fill="white" text-anchor="middle" alignment-baseline="central" x="661.6666666666666" y="123.0">D</text><circle fill="cornflowerblue" stroke="darkslategray" stroke-width="2" cx="755.0" cy="76.5" r="12" /><text font-family="Lato" font-size="15" font-weight="bold" fill="white" text-anchor="middle" alignment-baseline="central" x="755.0" y="76.5">G</text><circle fill="cornflowerblue" stroke="darkslategray" stroke-width="2" cx="755.0" cy="30.0" r="12" /><text font-family="Lato" font-size="15" font-weight="bold" fill="white" text-anchor="middle" alignment-baseline="central" x="755.0" y="30.0">C</text></svg>