<?xml version="1.0" encoding="utf-8" ?>
<svg width="600" height="250" xmlns="http://www.w3.org/2000/svg" xmlns:xlink="http://www.w3.org/1999/xlink" xmlns:ev="http://www.w3.org/2001/xml-events" baseProfile="full" version="1.1"><defs /><rect fill="white" x="0" y="0" width="600" height="250" /><line stroke="darkgray" stroke-width="2" x1="98.33333333333334" y1="30" x2="98.33333333333334" y2="212.5" /><line stroke="darkgray" stroke-width="2" x1="141.66666666666669" y1="30" x2="141.66666666666669" y2="212.5" /><line stroke="darkgray" stroke-width="2" x1="185.0" y1="30" x2="185.0" y2="212.5" /><line stroke="darkgray" stroke-width="2" x1="228.33333333333334" y1="30" x2="228.33333333333334" y2="212.5" /><line stroke="darkgray" stroke-width="2" x1="271.6666666666667" y1="30" x2="271.6666666666667" y2="212.5" /><line stroke="darkgray" stroke-width="2" x1="315.0" y1="30" x2="315.0" y2="212.5" /><line stroke="darkgray" stroke-width="2" x1="358.33333333333337" y1="30" x2="358.33333333333337" y2="212.5" /><line stroke="darkgray" stroke-width="2" x1="401.6666666666667" y1="30" x2="401.6666666666667" y2="212.5" /><line stroke="darkgray" stroke-width="2" x1="445.0" y1="30" x2="445.0" y2="212.5" /><line stroke="darkgray" stroke-width="2" x1="488.33333333333337" y1="30" x2="488.33333333333337" y2="212.5" /><line stroke="darkgray" stroke-width="2" x1="531.6666666666667" y1="30" x2="531.6666666666667" y2="212.5" /><line stroke="darkgray" stroke-width="2" x1="575.0" y1="30" x2="575.0" y2="212.5" /><circle fill="black" cx="163.33333333333331" cy="220.5" r="2" /><circle fill="black" cx="250.00000000000003" cy="220.5" r="2" /><circle fill="black" cx="336.6666666666667" cy="220.5" r="2" /><circle fill="black" cx="423.3333333333333" cy="220.5" r="2" /><circle fill="black" cx="549.3333333333333" cy="220.5" r="2" /><circle fill="black" cx="557.3333333333333" cy="220.5" r="2" /><line stroke="darkslategray" stroke-width="3.0" x1="45.0" y1="211.0" x2="585.0" y2="211.0" /><line stroke="darkslategray" stroke-width="2.6666666666666665" x1="45.0" y1="176.0" x2="585.0" y2="176.0" /><line stroke="darkslategray" stroke-width="2.3333333333333335" x1="45.0" y1="139.5" x2="585.0" y2="139.5" /><line stroke="darkslategray" stroke-width="2.0" x1="45.0" y1="103.0" x2="585.0" y2="103.0" /><line stroke="darkslategray" stroke-width="1.6666666666666667" x1="45.0" y1="66.5" x2="585.0" y2="66.5" /><line stroke="darkslategray" stroke-width="1.3333333333333335" x1="45.0" y1="30.666666666666668" x2="585.0" y2="30.666666666666668" /><line stroke="darkslategray" stroke-width="10" x1="50.0" y1="30" x2="50.0" y2="212.5" /><circle fill="salmon" stroke="darkslategray" stroke-width="2" cx="250.00000000000003" cy="212.5" r="12" /><text font-family="Lato" font-size="15" font-weight="bold" fill="white" text-anchor="middle" alignment-baseline="central" x="250.00000000000003" y="212.5">A</text><circle fill="cornflowerblue" stroke="darkslategray" stroke-width="2" cx="250.00000000000003" cy="176.0" r="12" /><text font-family="Lato" font-size="15" font-weight="bold" fill="white" text-anchor="middle" alignment-baseline="central" x="250.00000000000003" y="176.0">D</text><circle fill="cornflowerblue" stroke="darkslategray" stroke-width="2" cx="250.00000000000003" cy="139.5" r="12" /><text font-family="Lato" font-size="15" font-weight="bold" fill="white" text-anchor="middle" alignment-baseline="central" x="250.00000000000003" y="139.5">G</text><circle fill="cornflowerblue" stroke="darkslategray" stroke-width="2" cx="250.00000000000003" cy="103.0" r="12" /><text font-family="Lato" font-size="15" font-weight="bold" fill="white" text-anchor="middle" alignment-baseline="central" x="250.00000000000003" y="103.0">C</text><circle fill="cornflowerblue" stroke="darkslategray" stroke-width="2" cx="250.00000000000003" cy="66.5" r="12" /><text font-family="Lato" font-size="15" font-weight="bold" fill="white" text-anchor="middle" alignment-baseline="central" x="250.00000000000003" y="66.5">E</text><circle fill="salmon" stroke="darkslategray" stroke-width="2" cx="250.00000000000003" cy="30.0" r="12" /><text font-family="Lato" font-size="15" font-weight="bold" fill="white" text-anchor="middle" alignment-baseline="central" x="250.00000000000003" y="30.0">A</text><circle fill="cornflowerblue" stroke="darkslategray" stroke-width="2" cx="380.0" cy="212.5" r="12" /><text font-family="Lato" font-size="15" font-weight="bold" fill="white" text-anchor="middle" alignment-baseline="central" x="380.0" y="212.5">C</text><circle fill="cornflowerblue" stroke="darkslategray" stroke-width="2" cx="336.6666666666667" cy="176.0" r="12" /><text font-family="Lato" font-size="15" font-weight="bold" fill="white" text-anchor="middle" alignment-baseline="central" x="336.6666666666667" y="176.0">E</text><circle fill="salmon" stroke="darkslategray" stroke-width="2" cx="336.6666666666667" cy="139.5" r="12" /><text font-family="Lato" font-size="15" font-weight="bold" fill="white" text-anchor="middle" alignment-baseline="central" x="336.6666666666667" y="139.5">A</text><circle fill="cornflowerblue" stroke="darkslategray" stroke-width="2" cx="336.6666666666667" cy="103.0" r="12" /><text font-family="Lato" font-size="15" font-weight="bold" fill="white" text-anchor="middle" alignment-baseline="central" x="336.6666666666667" y="103.0">D</text><circle fill="cornflowerblue" stroke="darkslategray" stroke-width="2" cx="380.0" cy="66.5" r="12" /><text font-family="Lato" font-size="15" font-weight="bold" fill="white" text-anchor="middle" alignment-baseline="central" x="380.0" y="66.5">G</text><circle fill="cornflowerblue" stroke="darkslategray" stroke-width="2" cx="380.0" cy="30.0" r="12" /><text font-family="Lato" font-size="15" font-weight="bold" fill="white" text-anchor="middle" alignment-baseline="central" x="380.0" y="30.0">C</text></svg>