<?xml version="1.0" encoding="utf-8" ?>
<svg baseProfile="full" height="300" version="1.1" width="250" xmlns="http://www.w3.org/2000/svg" xmlns:ev="http://www.w3.org/2001/xml-events" xmlns:xlink="http://www.w3.org/1999/xlink"><defs /><rect fill-opacity="0" height="240" width="182.5" x="30" y="45.0" /><rect fill="white" fill-opacity="1" height="300" width="250" x="0" y="0" /><g id="frets"><line stroke="darkgray" stroke-width="2" x1="30" x2="212.5" y1="55.0" y2="55.0" /><line stroke="darkgray" stroke-width="2" x1="30" x2="212.5" y1="99.0" y2="99.0" /><line stroke="darkgray" stroke-width="2" x1="30" x2="212.5" y1="143.0" y2="143.0" /><line stroke="darkgray" stroke-width="2" x1="30" x2="212.5" y1="187.0" y2="187.0" /><line stroke="darkgray" stroke-width="2" x1="30" x2="212.5" y1="231.0" y2="231.0" /><line stroke="darkgray" stroke-width="2" x1="30" x2="212.5" y1="275.0" y2="275.0" /></g><circle cx="22" cy="117.0" fill="black" r="2" /><circle cx="22" cy="125.0" fill="black" r="2" /><circle cx="22" cy="253.0" fill="black" r="2" /><text fill="dimgray" font-family="Lato" font-size="15" font-weight="bold" text-anchor="middle" x="227.5" y="61.0">10</text><g id="strings" stroke="black"><line stroke-width="3.0" x1="30.0" x2="30.0" y1="45.0" y2="285.0" /><line stroke-width="2.6666666666666665" x1="66.5" x2="66.5" y1="45.0" y2="285.0" /><line stroke-width="2.3333333333333335" x1="103.0" x2="103.0" y1="45.0" y2="285.0" /><line stroke-width="2.0" x1="139.5" x2="139.5" y1="45.0" y2="285.0" /><line stroke-width="1.6666666666666667" x1="176.0" x2="176.0" y1="45.0" y2="285.0" /><line stroke-width="1.3333333333333335" x1="212.5" x2="212.5" y1="45.0" y2="285.0" /></g><line stroke="black" stroke-linecap="round" stroke-width="34" x1="176.0" x2="212.5" y1="77.0" y2="77.0" /><line stroke="chocolate" stroke-linecap="round" stroke-width="30" x1="176.0" x2="212.5" y1="77.0" y2="77.0" /><text alignment-baseline="middle" fill="white" font-family="Lato" font-size="15" font-weight="bold" text-anchor="middle" x="176.0" y="77.0">1</text><text alignment-baseline="middle" fill="darkgray" font-family="Lato" font-size="15" font-weight="bold" text-anchor="middle" x="30.0" y="30.0">X</text><circle cx="66.5" cy="253.0" fill="chocolate" r="15" stroke="black" stroke-width="2" /><text alignment-baseline="middle" fill="white" font-family="Lato" font-size="15" font-weight="bold" text-anchor="middle" x="66.5" y="253.0">4</text><circle cx="103.0" cy="209.0" fill="chocolate" r="15" stroke="black" stroke-width="2" /><text alignment-baseline="middle" fill="white" font-family="Lato" font-size="15" font-weight="bold" text-anchor="middle" x="103.0" y="209.0">3</text><circle cx="139.5" cy="121.0" fill="chocolate" r="15" stroke="black" stroke-width="2" /><text alignment-baseline="middle" fill="white" font-family="Lato" font-size="15" font-weight="bold" text-anchor="middle" x="139.5" y="121.0">2</text></svg>